#tb 0: 1/180000
0,      64800,      64800,        0,   622080, 0x4440caef
0,      72000,      72000,        0,   622080, 0xce67e69d
0,      79200,      79200,        0,   622080, 0x1dbdc653
0,      86400,      86400,        0,   622080, 0x55c791d0
0,      93600,      93600,        0,   622080, 0x8193740b
0,     100800,     100800,        0,   622080, 0x7125970f
0,     108000,     108000,        0,   622080, 0xeb63783a
0,     115200,     115200,        0,   622080, 0x7080590b
0,     122400,     122400,        0,   622080, 0x13f8175b
0,     129600,     129600,        0,   622080, 0x3e550e94
0,     136800,     136800,        0,   622080, 0x7f9d66f7
0,     144000,     144000,        0,   622080, 0x068eda80
0,     151200,     151200,        0,   622080, 0x843997f7
0,     158400,     158400,        0,   622080, 0x88207ca3
0,     165600,     165600,        0,   622080, 0x353eed75
0,     172800,     172800,        0,   622080, 0xf93e92b0
0,     180000,     180000,        0,   622080, 0xd0811094
0,     187200,     187200,        0,   622080, 0xb04a3141
0,     194400,     194400,        0,   622080, 0x4ab84909
0,     201600,     201600,        0,   622080, 0x4700b8f9
0,     208800,     208800,        0,   622080, 0x6305aeba
0,     216000,     216000,        0,   622080, 0x153faa3e
0,     223200,     223200,        0,   622080, 0xae724063
0,     230400,     230400,        0,   622080, 0xbe4fe779
0,     237600,     237600,        0,   622080, 0x209ed8c7
0,     244800,     244800,        0,   622080, 0xe2bbac96
0,     252000,     252000,        0,   622080, 0xe945441e
0,     259200,     259200,        0,   622080, 0x3590bd5d
0,     266400,     266400,        0,   622080, 0x8f3ef716
0,     273600,     273600,        0,   622080, 0x0109f125
0,     280800,     280800,        0,   622080, 0x230c373f
